<svg width="221" height="19" viewBox="0 0 221 19" fill="none" xmlns="http://www.w3.org/2000/svg">
<mask id="path-1-outside-1_2092_11645" maskUnits="userSpaceOnUse" x="0" y="0" width="221" height="19" fill="black">
<rect fill="white" width="221" height="19"/>
<path d="M12.5332 7.55273L13.1191 6.33203H14.0371L12.6797 11.8203C12.6146 12.1068 12.569 12.3118 12.543 12.4355C12.5234 12.5527 12.5137 12.6471 12.5137 12.7188C12.5137 12.9987 12.6048 13.2201 12.7871 13.3828C12.9759 13.5391 13.2331 13.6172 13.5586 13.6172C13.8971 13.6172 14.2422 13.5488 14.5938 13.4121C14.9518 13.2754 15.2936 13.0768 15.6191 12.8164C16.2507 12.3151 16.7422 11.651 17.0938 10.8242C17.4453 9.99089 17.6211 9.06966 17.6211 8.06055C17.6211 6.4069 16.9766 5.04948 15.6875 3.98828C14.3984 2.92708 12.7415 2.39648 10.7168 2.39648C9.57747 2.39648 8.53581 2.55924 7.5918 2.88477C6.64779 3.20378 5.79492 3.6888 5.0332 4.33984C4.07617 5.16016 3.35352 6.10742 2.86523 7.18164C2.37695 8.24935 2.13281 9.42773 2.13281 10.7168C2.13281 11.8496 2.32812 12.8424 2.71875 13.6953C3.10938 14.5482 3.70833 15.3034 4.51562 15.9609C5.17969 16.4948 5.97396 16.9115 6.89844 17.2109C7.82292 17.5104 8.80273 17.6602 9.83789 17.6602C10.9512 17.6602 12.0384 17.4974 13.0996 17.1719C14.1673 16.8529 15.1471 16.3874 16.0391 15.7754L16.4199 16.3125C15.4629 17.0352 14.4505 17.5755 13.3828 17.9336C12.3151 18.2982 11.1986 18.4805 10.0332 18.4805C8.78971 18.4805 7.66016 18.3275 6.64453 18.0215C5.62891 17.722 4.73372 17.2728 3.95898 16.6738C2.94987 15.9056 2.20443 15.0169 1.72266 14.0078C1.24089 12.9922 1 11.8138 1 10.4727C1 9.14453 1.27995 7.9043 1.83984 6.75195C2.39974 5.5931 3.22005 4.56771 4.30078 3.67578C5.16016 2.96615 6.13021 2.42904 7.21094 2.06445C8.29818 1.69987 9.47331 1.51758 10.7363 1.51758C11.791 1.51758 12.7936 1.66081 13.7441 1.94727C14.6947 2.23372 15.5052 2.63737 16.1758 3.1582C17.0156 3.80273 17.6471 4.54492 18.0703 5.38477C18.5 6.22461 18.7148 7.13607 18.7148 8.11914C18.7148 9.23242 18.513 10.2415 18.1094 11.1465C17.7057 12.0449 17.1165 12.8001 16.3418 13.4121C15.8861 13.7637 15.401 14.0339 14.8867 14.2227C14.3724 14.4049 13.8483 14.4961 13.3145 14.4961C12.6829 14.4961 12.2109 14.3757 11.8984 14.1348C11.5924 13.8874 11.4395 13.5163 11.4395 13.0215C11.4395 12.9954 11.4427 12.9499 11.4492 12.8848C11.4557 12.8197 11.459 12.7708 11.459 12.7383C11.127 13.3047 10.7135 13.7409 10.2188 14.0469C9.72396 14.3464 9.17708 14.4961 8.57812 14.4961C7.58203 14.4961 6.82357 14.2259 6.30273 13.6855C5.7819 13.1387 5.52148 12.3411 5.52148 11.293C5.52148 9.79557 5.96094 8.53255 6.83984 7.50391C7.71875 6.47526 8.78971 5.96094 10.0527 5.96094C10.6647 5.96094 11.179 6.0944 11.5957 6.36133C12.0124 6.62826 12.3249 7.02539 12.5332 7.55273ZM11.6738 11.1367L12.2793 8.71484C12.1621 8.10938 11.9147 7.63737 11.5371 7.29883C11.166 6.95378 10.7135 6.78125 10.1797 6.78125C9.17708 6.78125 8.34701 7.21745 7.68945 8.08984C7.03841 8.95573 6.71289 10.0527 6.71289 11.3809C6.71289 12.1035 6.89193 12.6667 7.25 13.0703C7.60807 13.474 8.10286 13.6758 8.73438 13.6758C9.43099 13.6758 10.0462 13.4447 10.5801 12.9824C11.1204 12.5137 11.485 11.8984 11.6738 11.1367Z"/>
<path d="M23.2152 15.7168V1.17578H30.2367C32.0596 1.17578 33.3389 1.53711 34.0746 2.25977C34.8103 2.98242 35.1781 4.24219 35.1781 6.03906V10.834C35.1781 12.6374 34.807 13.9036 34.0648 14.6328C33.3292 15.3555 32.0531 15.7168 30.2367 15.7168H23.2152ZM24.8168 14.2812H29.973C31.3728 14.2812 32.3103 14.0436 32.7855 13.5684C33.2608 13.0931 33.4984 12.1882 33.4984 10.8535V6.15625C33.4984 4.75 33.2608 3.80924 32.7855 3.33398C32.3168 2.85872 31.3793 2.62109 29.973 2.62109H24.8168V14.2812Z"/>
<path d="M39.8152 15.7168V1.17578H50.0203V2.71875H41.4168V7.47461H49.7762V8.95898H41.4168V14.1934H50.0203V15.7168H39.8152Z"/>
<path d="M56.2297 10.5605H62.5285L59.6281 2.71875H59.1105L56.2297 10.5605ZM52.675 15.7168L58.0461 1.17578H60.6926L66.093 15.7168H64.4328L63.0461 11.9961H55.6926L54.3352 15.7168H52.675Z"/>
<path d="M69.6559 15.7168V1.17578H72.3023L77.2828 14.1348L82.2145 1.17578H84.8805V15.7168H83.2789V2.5332L78.2594 15.7168H76.277L71.2574 2.5332V15.7168H69.6559Z"/>
<path d="M90.0059 15.7168V1.17578H97.0273C98.8503 1.17578 100.13 1.53711 100.865 2.25977C101.601 2.98242 101.969 4.24219 101.969 6.03906V10.834C101.969 12.6374 101.598 13.9036 100.855 14.6328C100.12 15.3555 98.8438 15.7168 97.0273 15.7168H90.0059ZM91.6074 14.2812H96.7637C98.1634 14.2812 99.1009 14.0436 99.5762 13.5684C100.051 13.0931 100.289 12.1882 100.289 10.8535V6.15625C100.289 4.75 100.051 3.80924 99.5762 3.33398C99.1074 2.85872 98.1699 2.62109 96.7637 2.62109H91.6074V14.2812Z"/>
<path d="M106.606 15.7168V1.17578H116.811V2.71875H108.207V7.47461H116.567V8.95898H108.207V14.1934H116.811V15.7168H106.606Z"/>
<path d="M119.261 1.17578H120.979L125.618 14.2129L130.276 1.17578H131.985L126.663 15.7168H124.583L119.261 1.17578Z"/>
<path d="M135.607 15.7168V1.17578H145.812V2.71875H137.208V7.47461H145.568V8.95898H137.208V14.1934H145.812V15.7168H135.607Z"/>
<path d="M150 15.7168V1.17578H151.582V14.1934H159.824V15.7168H150Z"/>
<path d="M169.695 2.51367H168.797C167.775 2.51367 167.052 2.56901 166.629 2.67969C166.206 2.79036 165.841 2.97591 165.535 3.23633C165.249 3.48372 165.047 3.81901 164.93 4.24219C164.812 4.65885 164.754 5.37826 164.754 6.40039V10.5215C164.754 11.5371 164.812 12.2533 164.93 12.6699C165.047 13.0801 165.249 13.4089 165.535 13.6562C165.841 13.9167 166.206 14.1022 166.629 14.2129C167.052 14.3236 167.775 14.3789 168.797 14.3789H169.695C170.717 14.3789 171.443 14.3236 171.873 14.2129C172.303 14.1022 172.671 13.9167 172.977 13.6562C173.257 13.4154 173.452 13.0931 173.562 12.6895C173.68 12.2858 173.738 11.5632 173.738 10.5215V6.38086C173.738 5.35872 173.68 4.63932 173.562 4.22266C173.445 3.79948 173.243 3.46419 172.957 3.2168C172.658 2.96289 172.296 2.78385 171.873 2.67969C171.45 2.56901 170.724 2.51367 169.695 2.51367ZM163.094 5.98047C163.094 4.125 163.478 2.83268 164.246 2.10352C165.014 1.36784 166.378 1 168.338 1H170.174C172.153 1 173.52 1.36133 174.275 2.08398C175.037 2.80664 175.418 4.10547 175.418 5.98047V10.9121C175.418 12.7741 175.031 14.0697 174.256 14.7988C173.488 15.528 172.127 15.8926 170.174 15.8926H168.338C166.378 15.8926 165.014 15.528 164.246 14.7988C163.478 14.0697 163.094 12.7741 163.094 10.9121V5.98047Z"/>
<path d="M188.795 6.69336V4.55469C188.795 3.85156 188.629 3.36979 188.297 3.10938C187.972 2.84896 187.259 2.71875 186.159 2.71875H181.657V8.53906H186.159C187.239 8.53906 187.949 8.4056 188.288 8.13867C188.626 7.87174 188.795 7.38997 188.795 6.69336ZM180.055 15.7168V1.17578H186.178C187.812 1.17578 188.935 1.41992 189.547 1.9082C190.166 2.38997 190.475 3.2526 190.475 4.49609V6.69336C190.475 7.9694 190.169 8.85156 189.557 9.33984C188.952 9.82812 187.825 10.0723 186.178 10.0723H181.657V15.7168H180.055Z"/>
<path d="M194.761 15.7168V1.17578H204.966V2.71875H196.362V7.47461H204.721V8.95898H196.362V14.1934H204.966V15.7168H194.761Z"/>
<path d="M215.394 2.71875H210.755V8.53906H215.394C216.605 8.53906 217.396 8.38932 217.767 8.08984C218.144 7.79036 218.333 7.25326 218.333 6.47852V4.7793C218.333 3.99154 218.151 3.45117 217.786 3.1582C217.428 2.86523 216.631 2.71875 215.394 2.71875ZM209.154 15.7168V1.17578H215.716C217.35 1.17578 218.473 1.41992 219.085 1.9082C219.704 2.38997 220.013 3.2526 220.013 4.49609V6.69336C220.013 7.45508 219.857 8.05404 219.544 8.49023C219.238 8.91992 218.769 9.1901 218.138 9.30078C218.828 9.46354 219.313 9.75977 219.593 10.1895C219.873 10.6191 220.013 11.2962 220.013 12.2207V15.7168H218.333V12.7188C218.333 11.6771 218.167 10.974 217.835 10.6094C217.51 10.2383 216.868 10.0527 215.911 10.0527H210.755V15.7168H209.154Z"/>
</mask>
<path d="M12.5332 7.55273L13.1191 6.33203H14.0371L12.6797 11.8203C12.6146 12.1068 12.569 12.3118 12.543 12.4355C12.5234 12.5527 12.5137 12.6471 12.5137 12.7188C12.5137 12.9987 12.6048 13.2201 12.7871 13.3828C12.9759 13.5391 13.2331 13.6172 13.5586 13.6172C13.8971 13.6172 14.2422 13.5488 14.5938 13.4121C14.9518 13.2754 15.2936 13.0768 15.6191 12.8164C16.2507 12.3151 16.7422 11.651 17.0938 10.8242C17.4453 9.99089 17.6211 9.06966 17.6211 8.06055C17.6211 6.4069 16.9766 5.04948 15.6875 3.98828C14.3984 2.92708 12.7415 2.39648 10.7168 2.39648C9.57747 2.39648 8.53581 2.55924 7.5918 2.88477C6.64779 3.20378 5.79492 3.6888 5.0332 4.33984C4.07617 5.16016 3.35352 6.10742 2.86523 7.18164C2.37695 8.24935 2.13281 9.42773 2.13281 10.7168C2.13281 11.8496 2.32812 12.8424 2.71875 13.6953C3.10938 14.5482 3.70833 15.3034 4.51562 15.9609C5.17969 16.4948 5.97396 16.9115 6.89844 17.2109C7.82292 17.5104 8.80273 17.6602 9.83789 17.6602C10.9512 17.6602 12.0384 17.4974 13.0996 17.1719C14.1673 16.8529 15.1471 16.3874 16.0391 15.7754L16.4199 16.3125C15.4629 17.0352 14.4505 17.5755 13.3828 17.9336C12.3151 18.2982 11.1986 18.4805 10.0332 18.4805C8.78971 18.4805 7.66016 18.3275 6.64453 18.0215C5.62891 17.722 4.73372 17.2728 3.95898 16.6738C2.94987 15.9056 2.20443 15.0169 1.72266 14.0078C1.24089 12.9922 1 11.8138 1 10.4727C1 9.14453 1.27995 7.9043 1.83984 6.75195C2.39974 5.5931 3.22005 4.56771 4.30078 3.67578C5.16016 2.96615 6.13021 2.42904 7.21094 2.06445C8.29818 1.69987 9.47331 1.51758 10.7363 1.51758C11.791 1.51758 12.7936 1.66081 13.7441 1.94727C14.6947 2.23372 15.5052 2.63737 16.1758 3.1582C17.0156 3.80273 17.6471 4.54492 18.0703 5.38477C18.5 6.22461 18.7148 7.13607 18.7148 8.11914C18.7148 9.23242 18.513 10.2415 18.1094 11.1465C17.7057 12.0449 17.1165 12.8001 16.3418 13.4121C15.8861 13.7637 15.401 14.0339 14.8867 14.2227C14.3724 14.4049 13.8483 14.4961 13.3145 14.4961C12.6829 14.4961 12.2109 14.3757 11.8984 14.1348C11.5924 13.8874 11.4395 13.5163 11.4395 13.0215C11.4395 12.9954 11.4427 12.9499 11.4492 12.8848C11.4557 12.8197 11.459 12.7708 11.459 12.7383C11.127 13.3047 10.7135 13.7409 10.2188 14.0469C9.72396 14.3464 9.17708 14.4961 8.57812 14.4961C7.58203 14.4961 6.82357 14.2259 6.30273 13.6855C5.7819 13.1387 5.52148 12.3411 5.52148 11.293C5.52148 9.79557 5.96094 8.53255 6.83984 7.50391C7.71875 6.47526 8.78971 5.96094 10.0527 5.96094C10.6647 5.96094 11.179 6.0944 11.5957 6.36133C12.0124 6.62826 12.3249 7.02539 12.5332 7.55273ZM11.6738 11.1367L12.2793 8.71484C12.1621 8.10938 11.9147 7.63737 11.5371 7.29883C11.166 6.95378 10.7135 6.78125 10.1797 6.78125C9.17708 6.78125 8.34701 7.21745 7.68945 8.08984C7.03841 8.95573 6.71289 10.0527 6.71289 11.3809C6.71289 12.1035 6.89193 12.6667 7.25 13.0703C7.60807 13.474 8.10286 13.6758 8.73438 13.6758C9.43099 13.6758 10.0462 13.4447 10.5801 12.9824C11.1204 12.5137 11.485 11.8984 11.6738 11.1367Z" fill="white"/>
<path d="M23.2152 15.7168V1.17578H30.2367C32.0596 1.17578 33.3389 1.53711 34.0746 2.25977C34.8103 2.98242 35.1781 4.24219 35.1781 6.03906V10.834C35.1781 12.6374 34.807 13.9036 34.0648 14.6328C33.3292 15.3555 32.0531 15.7168 30.2367 15.7168H23.2152ZM24.8168 14.2812H29.973C31.3728 14.2812 32.3103 14.0436 32.7855 13.5684C33.2608 13.0931 33.4984 12.1882 33.4984 10.8535V6.15625C33.4984 4.75 33.2608 3.80924 32.7855 3.33398C32.3168 2.85872 31.3793 2.62109 29.973 2.62109H24.8168V14.2812Z" fill="white"/>
<path d="M39.8152 15.7168V1.17578H50.0203V2.71875H41.4168V7.47461H49.7762V8.95898H41.4168V14.1934H50.0203V15.7168H39.8152Z" fill="white"/>
<path d="M56.2297 10.5605H62.5285L59.6281 2.71875H59.1105L56.2297 10.5605ZM52.675 15.7168L58.0461 1.17578H60.6926L66.093 15.7168H64.4328L63.0461 11.9961H55.6926L54.3352 15.7168H52.675Z" fill="white"/>
<path d="M69.6559 15.7168V1.17578H72.3023L77.2828 14.1348L82.2145 1.17578H84.8805V15.7168H83.2789V2.5332L78.2594 15.7168H76.277L71.2574 2.5332V15.7168H69.6559Z" fill="white"/>
<path d="M90.0059 15.7168V1.17578H97.0273C98.8503 1.17578 100.13 1.53711 100.865 2.25977C101.601 2.98242 101.969 4.24219 101.969 6.03906V10.834C101.969 12.6374 101.598 13.9036 100.855 14.6328C100.12 15.3555 98.8438 15.7168 97.0273 15.7168H90.0059ZM91.6074 14.2812H96.7637C98.1634 14.2812 99.1009 14.0436 99.5762 13.5684C100.051 13.0931 100.289 12.1882 100.289 10.8535V6.15625C100.289 4.75 100.051 3.80924 99.5762 3.33398C99.1074 2.85872 98.1699 2.62109 96.7637 2.62109H91.6074V14.2812Z" fill="white"/>
<path d="M106.606 15.7168V1.17578H116.811V2.71875H108.207V7.47461H116.567V8.95898H108.207V14.1934H116.811V15.7168H106.606Z" fill="white"/>
<path d="M119.261 1.17578H120.979L125.618 14.2129L130.276 1.17578H131.985L126.663 15.7168H124.583L119.261 1.17578Z" fill="white"/>
<path d="M135.607 15.7168V1.17578H145.812V2.71875H137.208V7.47461H145.568V8.95898H137.208V14.1934H145.812V15.7168H135.607Z" fill="white"/>
<path d="M150 15.7168V1.17578H151.582V14.1934H159.824V15.7168H150Z" fill="white"/>
<path d="M169.695 2.51367H168.797C167.775 2.51367 167.052 2.56901 166.629 2.67969C166.206 2.79036 165.841 2.97591 165.535 3.23633C165.249 3.48372 165.047 3.81901 164.93 4.24219C164.812 4.65885 164.754 5.37826 164.754 6.40039V10.5215C164.754 11.5371 164.812 12.2533 164.93 12.6699C165.047 13.0801 165.249 13.4089 165.535 13.6562C165.841 13.9167 166.206 14.1022 166.629 14.2129C167.052 14.3236 167.775 14.3789 168.797 14.3789H169.695C170.717 14.3789 171.443 14.3236 171.873 14.2129C172.303 14.1022 172.671 13.9167 172.977 13.6562C173.257 13.4154 173.452 13.0931 173.562 12.6895C173.68 12.2858 173.738 11.5632 173.738 10.5215V6.38086C173.738 5.35872 173.68 4.63932 173.562 4.22266C173.445 3.79948 173.243 3.46419 172.957 3.2168C172.658 2.96289 172.296 2.78385 171.873 2.67969C171.45 2.56901 170.724 2.51367 169.695 2.51367ZM163.094 5.98047C163.094 4.125 163.478 2.83268 164.246 2.10352C165.014 1.36784 166.378 1 168.338 1H170.174C172.153 1 173.52 1.36133 174.275 2.08398C175.037 2.80664 175.418 4.10547 175.418 5.98047V10.9121C175.418 12.7741 175.031 14.0697 174.256 14.7988C173.488 15.528 172.127 15.8926 170.174 15.8926H168.338C166.378 15.8926 165.014 15.528 164.246 14.7988C163.478 14.0697 163.094 12.7741 163.094 10.9121V5.98047Z" fill="white"/>
<path d="M188.795 6.69336V4.55469C188.795 3.85156 188.629 3.36979 188.297 3.10938C187.972 2.84896 187.259 2.71875 186.159 2.71875H181.657V8.53906H186.159C187.239 8.53906 187.949 8.4056 188.288 8.13867C188.626 7.87174 188.795 7.38997 188.795 6.69336ZM180.055 15.7168V1.17578H186.178C187.812 1.17578 188.935 1.41992 189.547 1.9082C190.166 2.38997 190.475 3.2526 190.475 4.49609V6.69336C190.475 7.9694 190.169 8.85156 189.557 9.33984C188.952 9.82812 187.825 10.0723 186.178 10.0723H181.657V15.7168H180.055Z" fill="white"/>
<path d="M194.761 15.7168V1.17578H204.966V2.71875H196.362V7.47461H204.721V8.95898H196.362V14.1934H204.966V15.7168H194.761Z" fill="white"/>
<path d="M215.394 2.71875H210.755V8.53906H215.394C216.605 8.53906 217.396 8.38932 217.767 8.08984C218.144 7.79036 218.333 7.25326 218.333 6.47852V4.7793C218.333 3.99154 218.151 3.45117 217.786 3.1582C217.428 2.86523 216.631 2.71875 215.394 2.71875ZM209.154 15.7168V1.17578H215.716C217.35 1.17578 218.473 1.41992 219.085 1.9082C219.704 2.38997 220.013 3.2526 220.013 4.49609V6.69336C220.013 7.45508 219.857 8.05404 219.544 8.49023C219.238 8.91992 218.769 9.1901 218.138 9.30078C218.828 9.46354 219.313 9.75977 219.593 10.1895C219.873 10.6191 220.013 11.2962 220.013 12.2207V15.7168H218.333V12.7188C218.333 11.6771 218.167 10.974 217.835 10.6094C217.51 10.2383 216.868 10.0527 215.911 10.0527H210.755V15.7168H209.154Z" fill="white"/>
<path d="M12.5332 7.55273L13.1191 6.33203H14.0371L12.6797 11.8203C12.6146 12.1068 12.569 12.3118 12.543 12.4355C12.5234 12.5527 12.5137 12.6471 12.5137 12.7188C12.5137 12.9987 12.6048 13.2201 12.7871 13.3828C12.9759 13.5391 13.2331 13.6172 13.5586 13.6172C13.8971 13.6172 14.2422 13.5488 14.5938 13.4121C14.9518 13.2754 15.2936 13.0768 15.6191 12.8164C16.2507 12.3151 16.7422 11.651 17.0938 10.8242C17.4453 9.99089 17.6211 9.06966 17.6211 8.06055C17.6211 6.4069 16.9766 5.04948 15.6875 3.98828C14.3984 2.92708 12.7415 2.39648 10.7168 2.39648C9.57747 2.39648 8.53581 2.55924 7.5918 2.88477C6.64779 3.20378 5.79492 3.6888 5.0332 4.33984C4.07617 5.16016 3.35352 6.10742 2.86523 7.18164C2.37695 8.24935 2.13281 9.42773 2.13281 10.7168C2.13281 11.8496 2.32812 12.8424 2.71875 13.6953C3.10938 14.5482 3.70833 15.3034 4.51562 15.9609C5.17969 16.4948 5.97396 16.9115 6.89844 17.2109C7.82292 17.5104 8.80273 17.6602 9.83789 17.6602C10.9512 17.6602 12.0384 17.4974 13.0996 17.1719C14.1673 16.8529 15.1471 16.3874 16.0391 15.7754L16.4199 16.3125C15.4629 17.0352 14.4505 17.5755 13.3828 17.9336C12.3151 18.2982 11.1986 18.4805 10.0332 18.4805C8.78971 18.4805 7.66016 18.3275 6.64453 18.0215C5.62891 17.722 4.73372 17.2728 3.95898 16.6738C2.94987 15.9056 2.20443 15.0169 1.72266 14.0078C1.24089 12.9922 1 11.8138 1 10.4727C1 9.14453 1.27995 7.9043 1.83984 6.75195C2.39974 5.5931 3.22005 4.56771 4.30078 3.67578C5.16016 2.96615 6.13021 2.42904 7.21094 2.06445C8.29818 1.69987 9.47331 1.51758 10.7363 1.51758C11.791 1.51758 12.7936 1.66081 13.7441 1.94727C14.6947 2.23372 15.5052 2.63737 16.1758 3.1582C17.0156 3.80273 17.6471 4.54492 18.0703 5.38477C18.5 6.22461 18.7148 7.13607 18.7148 8.11914C18.7148 9.23242 18.513 10.2415 18.1094 11.1465C17.7057 12.0449 17.1165 12.8001 16.3418 13.4121C15.8861 13.7637 15.401 14.0339 14.8867 14.2227C14.3724 14.4049 13.8483 14.4961 13.3145 14.4961C12.6829 14.4961 12.2109 14.3757 11.8984 14.1348C11.5924 13.8874 11.4395 13.5163 11.4395 13.0215C11.4395 12.9954 11.4427 12.9499 11.4492 12.8848C11.4557 12.8197 11.459 12.7708 11.459 12.7383C11.127 13.3047 10.7135 13.7409 10.2188 14.0469C9.72396 14.3464 9.17708 14.4961 8.57812 14.4961C7.58203 14.4961 6.82357 14.2259 6.30273 13.6855C5.7819 13.1387 5.52148 12.3411 5.52148 11.293C5.52148 9.79557 5.96094 8.53255 6.83984 7.50391C7.71875 6.47526 8.78971 5.96094 10.0527 5.96094C10.6647 5.96094 11.179 6.0944 11.5957 6.36133C12.0124 6.62826 12.3249 7.02539 12.5332 7.55273ZM11.6738 11.1367L12.2793 8.71484C12.1621 8.10938 11.9147 7.63737 11.5371 7.29883C11.166 6.95378 10.7135 6.78125 10.1797 6.78125C9.17708 6.78125 8.34701 7.21745 7.68945 8.08984C7.03841 8.95573 6.71289 10.0527 6.71289 11.3809C6.71289 12.1035 6.89193 12.6667 7.25 13.0703C7.60807 13.474 8.10286 13.6758 8.73438 13.6758C9.43099 13.6758 10.0462 13.4447 10.5801 12.9824C11.1204 12.5137 11.485 11.8984 11.6738 11.1367Z" stroke="white" mask="url(#path-1-outside-1_2092_11645)"/>
<path d="M23.2152 15.7168V1.17578H30.2367C32.0596 1.17578 33.3389 1.53711 34.0746 2.25977C34.8103 2.98242 35.1781 4.24219 35.1781 6.03906V10.834C35.1781 12.6374 34.807 13.9036 34.0648 14.6328C33.3292 15.3555 32.0531 15.7168 30.2367 15.7168H23.2152ZM24.8168 14.2812H29.973C31.3728 14.2812 32.3103 14.0436 32.7855 13.5684C33.2608 13.0931 33.4984 12.1882 33.4984 10.8535V6.15625C33.4984 4.75 33.2608 3.80924 32.7855 3.33398C32.3168 2.85872 31.3793 2.62109 29.973 2.62109H24.8168V14.2812Z" stroke="white" mask="url(#path-1-outside-1_2092_11645)"/>
<path d="M39.8152 15.7168V1.17578H50.0203V2.71875H41.4168V7.47461H49.7762V8.95898H41.4168V14.1934H50.0203V15.7168H39.8152Z" stroke="white" mask="url(#path-1-outside-1_2092_11645)"/>
<path d="M56.2297 10.5605H62.5285L59.6281 2.71875H59.1105L56.2297 10.5605ZM52.675 15.7168L58.0461 1.17578H60.6926L66.093 15.7168H64.4328L63.0461 11.9961H55.6926L54.3352 15.7168H52.675Z" stroke="white" mask="url(#path-1-outside-1_2092_11645)"/>
<path d="M69.6559 15.7168V1.17578H72.3023L77.2828 14.1348L82.2145 1.17578H84.8805V15.7168H83.2789V2.5332L78.2594 15.7168H76.277L71.2574 2.5332V15.7168H69.6559Z" stroke="white" mask="url(#path-1-outside-1_2092_11645)"/>
<path d="M90.0059 15.7168V1.17578H97.0273C98.8503 1.17578 100.13 1.53711 100.865 2.25977C101.601 2.98242 101.969 4.24219 101.969 6.03906V10.834C101.969 12.6374 101.598 13.9036 100.855 14.6328C100.12 15.3555 98.8438 15.7168 97.0273 15.7168H90.0059ZM91.6074 14.2812H96.7637C98.1634 14.2812 99.1009 14.0436 99.5762 13.5684C100.051 13.0931 100.289 12.1882 100.289 10.8535V6.15625C100.289 4.75 100.051 3.80924 99.5762 3.33398C99.1074 2.85872 98.1699 2.62109 96.7637 2.62109H91.6074V14.2812Z" stroke="white" mask="url(#path-1-outside-1_2092_11645)"/>
<path d="M106.606 15.7168V1.17578H116.811V2.71875H108.207V7.47461H116.567V8.95898H108.207V14.1934H116.811V15.7168H106.606Z" stroke="white" mask="url(#path-1-outside-1_2092_11645)"/>
<path d="M119.261 1.17578H120.979L125.618 14.2129L130.276 1.17578H131.985L126.663 15.7168H124.583L119.261 1.17578Z" stroke="white" mask="url(#path-1-outside-1_2092_11645)"/>
<path d="M135.607 15.7168V1.17578H145.812V2.71875H137.208V7.47461H145.568V8.95898H137.208V14.1934H145.812V15.7168H135.607Z" stroke="white" mask="url(#path-1-outside-1_2092_11645)"/>
<path d="M150 15.7168V1.17578H151.582V14.1934H159.824V15.7168H150Z" stroke="white" mask="url(#path-1-outside-1_2092_11645)"/>
<path d="M169.695 2.51367H168.797C167.775 2.51367 167.052 2.56901 166.629 2.67969C166.206 2.79036 165.841 2.97591 165.535 3.23633C165.249 3.48372 165.047 3.81901 164.93 4.24219C164.812 4.65885 164.754 5.37826 164.754 6.40039V10.5215C164.754 11.5371 164.812 12.2533 164.93 12.6699C165.047 13.0801 165.249 13.4089 165.535 13.6562C165.841 13.9167 166.206 14.1022 166.629 14.2129C167.052 14.3236 167.775 14.3789 168.797 14.3789H169.695C170.717 14.3789 171.443 14.3236 171.873 14.2129C172.303 14.1022 172.671 13.9167 172.977 13.6562C173.257 13.4154 173.452 13.0931 173.562 12.6895C173.68 12.2858 173.738 11.5632 173.738 10.5215V6.38086C173.738 5.35872 173.68 4.63932 173.562 4.22266C173.445 3.79948 173.243 3.46419 172.957 3.2168C172.658 2.96289 172.296 2.78385 171.873 2.67969C171.45 2.56901 170.724 2.51367 169.695 2.51367ZM163.094 5.98047C163.094 4.125 163.478 2.83268 164.246 2.10352C165.014 1.36784 166.378 1 168.338 1H170.174C172.153 1 173.52 1.36133 174.275 2.08398C175.037 2.80664 175.418 4.10547 175.418 5.98047V10.9121C175.418 12.7741 175.031 14.0697 174.256 14.7988C173.488 15.528 172.127 15.8926 170.174 15.8926H168.338C166.378 15.8926 165.014 15.528 164.246 14.7988C163.478 14.0697 163.094 12.7741 163.094 10.9121V5.98047Z" stroke="white" mask="url(#path-1-outside-1_2092_11645)"/>
<path d="M188.795 6.69336V4.55469C188.795 3.85156 188.629 3.36979 188.297 3.10938C187.972 2.84896 187.259 2.71875 186.159 2.71875H181.657V8.53906H186.159C187.239 8.53906 187.949 8.4056 188.288 8.13867C188.626 7.87174 188.795 7.38997 188.795 6.69336ZM180.055 15.7168V1.17578H186.178C187.812 1.17578 188.935 1.41992 189.547 1.9082C190.166 2.38997 190.475 3.2526 190.475 4.49609V6.69336C190.475 7.9694 190.169 8.85156 189.557 9.33984C188.952 9.82812 187.825 10.0723 186.178 10.0723H181.657V15.7168H180.055Z" stroke="white" mask="url(#path-1-outside-1_2092_11645)"/>
<path d="M194.761 15.7168V1.17578H204.966V2.71875H196.362V7.47461H204.721V8.95898H196.362V14.1934H204.966V15.7168H194.761Z" stroke="white" mask="url(#path-1-outside-1_2092_11645)"/>
<path d="M215.394 2.71875H210.755V8.53906H215.394C216.605 8.53906 217.396 8.38932 217.767 8.08984C218.144 7.79036 218.333 7.25326 218.333 6.47852V4.7793C218.333 3.99154 218.151 3.45117 217.786 3.1582C217.428 2.86523 216.631 2.71875 215.394 2.71875ZM209.154 15.7168V1.17578H215.716C217.35 1.17578 218.473 1.41992 219.085 1.9082C219.704 2.38997 220.013 3.2526 220.013 4.49609V6.69336C220.013 7.45508 219.857 8.05404 219.544 8.49023C219.238 8.91992 218.769 9.1901 218.138 9.30078C218.828 9.46354 219.313 9.75977 219.593 10.1895C219.873 10.6191 220.013 11.2962 220.013 12.2207V15.7168H218.333V12.7188C218.333 11.6771 218.167 10.974 217.835 10.6094C217.51 10.2383 216.868 10.0527 215.911 10.0527H210.755V15.7168H209.154Z" stroke="white" mask="url(#path-1-outside-1_2092_11645)"/>
</svg>
